<?xml version="1.0" encoding="utf-8"?>
<!-- Generator: Adobe Illustrator 16.0.0, SVG Export Plug-In . SVG Version: 6.00 Build 0)  -->
<!DOCTYPE svg PUBLIC "-//W3C//DTD SVG 1.1//EN" "http://www.w3.org/Graphics/SVG/1.1/DTD/svg11.dtd">
<svg version="1.1" id="Layer_1" xmlns="http://www.w3.org/2000/svg" xmlns:xlink="http://www.w3.org/1999/xlink" x="0px" y="0px"
	 width="48.695px" height="34.945px" viewBox="0 0 48.695 34.945" enable-background="new 0 0 48.695 34.945" xml:space="preserve">
<path fill="#FFFFFF" d="M0.648,15.009l0.153,0.596v6.431l-0.154,0.586h1.469l-0.153-0.586v-2.6l0.034-0.035h1.28l0.53-0.53V15.54
	l-0.53-0.53H0.648z M1.963,18.205v-1.988l0.034-0.035h0.604l0.035,0.035v1.988L2.601,18.24H1.997L1.963,18.205z"/>
<polygon fill="#FFFFFF" points="5.634,21.46 5.599,21.426 5.599,15.604 5.737,15.009 4.274,15.009 4.427,15.605 4.427,22.037 
	4.272,22.623 7.296,22.623 7.515,21.318 6.87,21.46 "/>
<path fill="#FFFFFF" d="M10.228,15.551l0.126-0.542H8.788l0.125,0.542l-1.079,6.28l-0.269,0.791h1.479l-0.105-0.437l0.223-1.351
	l0.062-0.058h0.701l0.064,0.064l0.234,1.345l-0.105,0.436h1.48l-0.276-0.783L10.228,15.551z M9.569,18.387l0.206,1.218H9.367
	l-0.005-0.004L9.569,18.387z"/>
<polygon fill="#FFFFFF" points="11.577,15.009 11.36,16.325 12.004,16.182 12.548,16.182 12.583,16.217 12.583,22.037 
	12.429,22.623 13.897,22.623 13.745,22.037 13.745,16.217 13.779,16.182 14.312,16.182 14.956,16.325 14.739,15.009 "/>
<polygon fill="#FFFFFF" points="16.829,16.171 18.075,16.171 18.72,16.314 18.503,15.009 15.479,15.009 15.632,15.595 
	15.632,22.027 15.479,22.623 18.503,22.623 18.72,21.307 18.075,21.451 16.829,21.451 16.794,21.416 16.794,19.426 16.829,19.392 
	17.125,19.392 17.722,19.544 17.722,18.077 17.125,18.229 16.829,18.229 16.794,18.195 16.794,16.206 "/>
<path fill="#FFFFFF" d="M21.823,15.009l0.152,0.596v6.431l-0.154,0.586h1.47l-0.153-0.586v-2.6l0.035-0.035h1.279l0.53-0.53V15.54
	l-0.53-0.53H21.823z M23.138,18.205v-1.988l0.035-0.035h0.602l0.035,0.035v1.988l-0.035,0.035h-0.602L23.138,18.205z"/>
<path fill="#FFFFFF" d="M28.156,19.323l0.452-0.451V15.54l-0.531-0.53h-2.629l0.152,0.596v6.431l-0.152,0.586h1.468l-0.153-0.586
	v-2.6l0.035-0.035h0.182l0.4,2.658l-0.109,0.562h1.467l-0.195-0.609L28.156,19.323z M27.445,16.217v1.988l-0.034,0.035h-0.613
	l-0.035-0.035v-1.988l0.035-0.035h0.613L27.445,16.217z"/>
<path fill="#FFFFFF" d="M29.991,15.009l-0.531,0.53v6.553l0.531,0.53h1.945l0.53-0.53V15.54l-0.53-0.53H29.991z M30.622,21.426
	v-5.209l0.035-0.035h0.603l0.034,0.035v5.209L31.26,21.46h-0.603L30.622,21.426z"/>
<polygon fill="#FFFFFF" points="34.823,15.605 34.823,21.426 34.788,21.46 34.175,21.46 34.14,21.426 34.14,20.671 34.294,20.075 
	32.826,20.075 32.979,20.671 32.979,22.092 33.509,22.623 35.454,22.623 35.985,22.092 35.985,15.605 36.138,15.009 34.671,15.009 
	"/>
<polygon fill="#FFFFFF" points="38.237,16.171 39.485,16.171 40.128,16.314 39.911,15.009 36.888,15.009 37.04,15.595 37.04,22.027 
	36.888,22.623 39.911,22.623 40.128,21.307 39.485,21.451 38.237,21.451 38.202,21.416 38.202,19.426 38.237,19.392 38.534,19.392 
	39.13,19.544 39.13,18.077 38.534,18.229 38.237,18.229 38.202,18.195 38.202,16.206 "/>
<polygon fill="#FFFFFF" points="42.399,17.088 43.868,17.088 43.716,16.502 43.716,15.54 43.185,15.009 41.239,15.009 40.708,15.54 
	40.708,22.092 41.239,22.623 43.185,22.623 43.716,22.092 43.716,21.119 43.868,20.533 42.399,20.533 42.554,21.119 42.554,21.416 
	42.519,21.451 41.905,21.451 41.87,21.416 41.87,16.206 41.905,16.171 42.519,16.171 42.554,16.206 42.554,16.502 "/>
<polygon fill="#FFFFFF" points="46.735,16.182 47.269,16.182 47.913,16.325 47.694,15.009 44.534,15.009 44.315,16.325 
	44.96,16.182 45.505,16.182 45.538,16.217 45.538,22.037 45.386,22.623 46.854,22.623 46.7,22.037 46.7,16.217 "/>
<path fill="#FFFFFF" d="M22.291,8.587l-0.138,0.269c0.053-0.077,0.105-0.154,0.157-0.23s0.106-0.152,0.161-0.227
	c0.066-0.09,0.143-0.192,0.232-0.308s0.188-0.219,0.289-0.311c0.104-0.091,0.212-0.16,0.326-0.207
	c0.113-0.046,0.229-0.048,0.348-0.007c0.068,0.024,0.122,0.06,0.161,0.109c0.039,0.048,0.065,0.105,0.081,0.169
	c0.014,0.064,0.018,0.132,0.01,0.204c-0.008,0.071-0.023,0.144-0.047,0.216c-0.072,0.218-0.168,0.427-0.286,0.625
	c-0.119,0.199-0.235,0.395-0.351,0.588c-0.055,0.095-0.086,0.164-0.095,0.208c-0.009,0.044-0.001,0.068,0.022,0.072
	c0.021,0.004,0.059-0.01,0.107-0.043c0.049-0.033,0.103-0.081,0.16-0.143c0.066-0.067,0.127-0.138,0.185-0.211
	s0.115-0.145,0.174-0.214c0.065-0.08,0.13-0.161,0.196-0.242c0.064-0.082,0.131-0.166,0.195-0.252
	c0.029-0.038,0.059-0.063,0.088-0.074c0.029-0.012,0.055-0.013,0.074-0.003s0.031,0.028,0.039,0.054
	c0.006,0.027,0.001,0.058-0.016,0.093c-0.025,0.054-0.062,0.118-0.107,0.195c-0.045,0.076-0.094,0.154-0.145,0.233
	s-0.102,0.156-0.151,0.229c-0.051,0.075-0.093,0.136-0.125,0.184c-0.059,0.089-0.124,0.185-0.198,0.287
	c-0.073,0.103-0.154,0.194-0.242,0.275c-0.088,0.081-0.184,0.144-0.283,0.189c-0.102,0.046-0.208,0.055-0.318,0.029
	c-0.096-0.022-0.168-0.063-0.219-0.121c-0.051-0.058-0.084-0.126-0.103-0.205c-0.019-0.078-0.021-0.164-0.007-0.255
	c0.013-0.092,0.033-0.182,0.062-0.268c0.043-0.119,0.094-0.233,0.154-0.343c0.061-0.11,0.123-0.217,0.189-0.322
	c0.064-0.104,0.132-0.208,0.2-0.309c0.068-0.102,0.132-0.207,0.19-0.315c0.037-0.065,0.049-0.104,0.037-0.117
	s-0.039-0.004-0.083,0.024s-0.102,0.076-0.171,0.141c-0.07,0.064-0.15,0.144-0.238,0.237c-0.101,0.106-0.193,0.216-0.279,0.331
	c-0.084,0.115-0.17,0.231-0.254,0.351c-0.068,0.097-0.137,0.193-0.203,0.288c-0.066,0.095-0.129,0.19-0.186,0.287
	c-0.058,0.096-0.108,0.196-0.152,0.298s-0.076,0.21-0.096,0.325c-0.01,0.06-0.032,0.112-0.068,0.154
	c-0.035,0.042-0.076,0.074-0.122,0.095s-0.093,0.032-0.14,0.032c-0.047,0-0.089-0.01-0.125-0.029
	c-0.055-0.029-0.093-0.079-0.112-0.146c-0.02-0.068-0.026-0.146-0.02-0.234c0.007-0.087,0.021-0.18,0.044-0.277
	s0.05-0.191,0.08-0.284c0.031-0.091,0.062-0.177,0.094-0.256s0.057-0.141,0.076-0.188c0.101-0.249,0.211-0.495,0.332-0.736
	s0.25-0.479,0.387-0.711c0.029-0.051,0.068-0.119,0.118-0.202c0.048-0.083,0.104-0.171,0.163-0.261
	c0.061-0.091,0.126-0.181,0.196-0.27c0.07-0.089,0.142-0.165,0.216-0.226c0.073-0.062,0.148-0.105,0.228-0.131
	c0.078-0.025,0.153-0.02,0.226,0.017c0.074,0.036,0.12,0.094,0.137,0.174c0.016,0.081,0.006,0.165-0.029,0.252
	c-0.037,0.088-0.082,0.177-0.14,0.267c-0.058,0.09-0.125,0.186-0.203,0.286c-0.079,0.101-0.167,0.209-0.267,0.329
	c-0.1,0.119-0.21,0.249-0.33,0.391L22.291,8.587z"/>
<path fill="#FFFFFF" d="M24.749,9.374c0.078,0.045,0.166,0.058,0.267,0.039c0.099-0.02,0.202-0.058,0.311-0.116
	c0.108-0.058,0.216-0.13,0.325-0.216c0.109-0.086,0.213-0.175,0.311-0.267c0.1-0.093,0.187-0.182,0.266-0.27
	c0.078-0.087,0.139-0.161,0.186-0.221c0.032-0.045,0.065-0.073,0.098-0.083c0.033-0.011,0.06-0.009,0.081,0.005
	c0.021,0.014,0.034,0.04,0.039,0.077s-0.003,0.078-0.022,0.124c-0.18,0.394-0.412,0.733-0.699,1.019
	c-0.092,0.088-0.19,0.171-0.297,0.25c-0.105,0.079-0.216,0.146-0.33,0.203c-0.114,0.056-0.23,0.096-0.348,0.122
	c-0.117,0.025-0.234,0.027-0.353,0.005c-0.141-0.024-0.252-0.073-0.335-0.146c-0.084-0.073-0.143-0.162-0.18-0.265
	c-0.035-0.103-0.051-0.218-0.046-0.344s0.024-0.256,0.059-0.388c0.034-0.131,0.081-0.261,0.138-0.388
	c0.057-0.128,0.117-0.245,0.184-0.351c0.064-0.103,0.138-0.206,0.217-0.31c0.08-0.104,0.168-0.201,0.262-0.291
	c0.096-0.09,0.195-0.17,0.302-0.239c0.106-0.069,0.218-0.121,0.335-0.155c0.138-0.04,0.271-0.043,0.399-0.009
	c0.129,0.035,0.229,0.107,0.302,0.219c0.068,0.105,0.1,0.221,0.094,0.345c-0.004,0.125-0.033,0.25-0.087,0.373
	c-0.054,0.124-0.126,0.242-0.218,0.354c-0.092,0.113-0.188,0.207-0.289,0.284c-0.166,0.127-0.332,0.211-0.497,0.251
	c-0.165,0.041-0.33,0.051-0.497,0.031c-0.025,0.08-0.039,0.152-0.041,0.218C24.681,9.3,24.702,9.346,24.749,9.374z M25.204,8.501
	c0.127-0.071,0.236-0.17,0.328-0.298c0.022-0.03,0.051-0.074,0.083-0.132c0.032-0.058,0.054-0.112,0.063-0.163
	c0.017-0.058,0.01-0.09-0.02-0.097s-0.064,0.001-0.103,0.021c-0.056,0.026-0.108,0.064-0.159,0.113
	c-0.051,0.05-0.096,0.097-0.135,0.139c-0.068,0.077-0.133,0.159-0.191,0.244C25.013,8.414,24.959,8.5,24.91,8.587
	C25.015,8.579,25.112,8.55,25.204,8.501z"/>
<path fill="#FFFFFF" d="M22.313,6.262l0.027,0.175c0.066-0.021,0.135-0.042,0.197-0.063c0.128-0.044,0.271-0.103,0.43-0.175
	c0.158-0.072,0.307-0.16,0.443-0.264c0.137-0.103,0.252-0.224,0.344-0.361c0.092-0.137,0.137-0.295,0.134-0.476
	c0.001-0.058-0.017-0.103-0.052-0.135c-0.035-0.032-0.074-0.049-0.12-0.052c-0.044-0.003-0.089,0.009-0.134,0.035
	c-0.043,0.027-0.074,0.072-0.094,0.133c-0.031,0.093-0.088,0.173-0.17,0.24s-0.16,0.121-0.236,0.161
	c-0.184,0.098-0.39,0.181-0.619,0.25c-0.23,0.07-0.469,0.134-0.716,0.193c-0.247,0.058-0.492,0.115-0.736,0.169
	s-0.47,0.113-0.678,0.179c-0.17,0.052-0.339,0.115-0.507,0.19c-0.168,0.076-0.32,0.185-0.456,0.328
	c-0.088,0.091-0.157,0.199-0.21,0.323c-0.054,0.124-0.082,0.245-0.088,0.364c-0.006,0.12,0.018,0.227,0.068,0.321
	c0.053,0.094,0.139,0.16,0.26,0.195c0.076,0.021,0.154,0.026,0.236,0.014c0.08-0.014,0.16-0.033,0.238-0.061
	c0.047-0.016,0.085-0.042,0.115-0.079c0.031-0.036,0.051-0.07,0.061-0.103c0.01-0.032,0.006-0.057-0.01-0.073
	c-0.016-0.017-0.047-0.016-0.093,0.004c-0.071,0.031-0.142,0.055-0.21,0.072c-0.068,0.017-0.137,0.006-0.205-0.035
	c-0.064-0.049-0.092-0.118-0.084-0.207c0.01-0.089,0.048-0.167,0.117-0.235c0.057-0.058,0.119-0.103,0.188-0.137
	c0.069-0.034,0.139-0.063,0.207-0.087c0.182-0.06,0.385-0.118,0.606-0.175s0.448-0.114,0.68-0.169
	c0.077-0.018,0.151-0.038,0.228-0.057L21.7,6.532L22.313,6.262z"/>
<path fill="#FFFFFF" d="M21.335,6.841c-0.047,0.051-0.09,0.103-0.131,0.156c-0.161,0.193-0.312,0.389-0.455,0.586
	s-0.28,0.401-0.413,0.613c-0.097,0.159-0.196,0.332-0.3,0.518c-0.104,0.185-0.189,0.374-0.262,0.565
	c-0.07,0.192-0.119,0.383-0.146,0.574c-0.028,0.191-0.018,0.372,0.033,0.541c0.014,0.053,0.037,0.11,0.069,0.171
	c0.032,0.061,0.072,0.113,0.12,0.157c0.049,0.044,0.103,0.077,0.162,0.096s0.123,0.012,0.192-0.023
	c0.06-0.024,0.104-0.056,0.131-0.095c0.027-0.039,0.049-0.083,0.062-0.131c0.015-0.048,0.021-0.098,0.024-0.149
	s0.009-0.101,0.018-0.148c0.042-0.25,0.11-0.506,0.206-0.766c0.097-0.26,0.209-0.519,0.334-0.775
	c0.127-0.257,0.264-0.51,0.414-0.761c0.148-0.251,0.297-0.495,0.443-0.732c0.078-0.128,0.161-0.263,0.248-0.405
	c0.08-0.129,0.168-0.244,0.263-0.347l-0.007-0.048c-0.129,0.04-0.264,0.079-0.411,0.117c-0.149,0.039-0.302,0.076-0.454,0.113
	l-0.051,0.031c0.016-0.005,0.031-0.011,0.047-0.017C21.427,6.735,21.38,6.789,21.335,6.841z"/>
<path fill="#FFFFFF" d="M22.341,6.437l-0.027-0.175L21.7,6.532l-0.225,0.136c0.152-0.037,0.305-0.074,0.454-0.113
	C22.077,6.516,22.212,6.477,22.341,6.437z"/>
<path fill="#FFFFFF" d="M26.427,10.071c-0.023,0.172-0.092,0.327-0.211,0.462c-0.119,0.137-0.26,0.258-0.422,0.365
	c-0.164,0.107-0.336,0.199-0.518,0.276c-0.183,0.077-0.346,0.142-0.491,0.19c-0.206,0.07-0.435,0.139-0.685,0.206
	c-0.251,0.067-0.506,0.133-0.764,0.198s-0.511,0.131-0.76,0.197c-0.248,0.066-0.477,0.134-0.682,0.201
	c-0.078,0.027-0.157,0.058-0.236,0.094c-0.08,0.036-0.154,0.084-0.223,0.141c-0.084,0.068-0.137,0.146-0.158,0.231
	c-0.022,0.086-0.002,0.151,0.061,0.194c0.07,0.035,0.143,0.042,0.219,0.023c0.077-0.02,0.156-0.047,0.237-0.081
	c0.054-0.021,0.087-0.024,0.103-0.009c0.014,0.016,0.015,0.039,0,0.07c-0.016,0.032-0.042,0.065-0.08,0.102
	c-0.037,0.036-0.084,0.063-0.137,0.082c-0.089,0.03-0.178,0.053-0.267,0.069s-0.174,0.017-0.253,0
	c-0.127-0.028-0.213-0.087-0.256-0.174c-0.043-0.088-0.053-0.189-0.029-0.304c0.021-0.115,0.07-0.233,0.145-0.355
	c0.074-0.121,0.164-0.229,0.273-0.321c0.166-0.143,0.346-0.255,0.538-0.336s0.386-0.151,0.577-0.21
	c0.234-0.073,0.487-0.143,0.76-0.208c0.271-0.065,0.546-0.132,0.822-0.201c0.275-0.069,0.543-0.143,0.802-0.222
	c0.259-0.079,0.495-0.169,0.706-0.273c0.088-0.042,0.182-0.098,0.279-0.167c0.098-0.068,0.17-0.149,0.217-0.239
	c0.029-0.06,0.07-0.104,0.121-0.133c0.052-0.028,0.102-0.042,0.15-0.041c0.047,0.001,0.089,0.015,0.123,0.044
	C26.423,9.973,26.435,10.015,26.427,10.071z"/>
<path fill="#FFFFFF" d="M21.284,13.156c-0.047,0-0.092-0.004-0.137-0.013c-0.146-0.033-0.246-0.103-0.297-0.208
	c-0.049-0.1-0.061-0.215-0.035-0.343c0.023-0.121,0.074-0.247,0.152-0.375c0.078-0.126,0.174-0.239,0.285-0.335
	c0.172-0.147,0.359-0.264,0.556-0.346c0.192-0.081,0.388-0.152,0.583-0.212c0.239-0.075,0.496-0.145,0.763-0.209
	c0.272-0.064,0.546-0.131,0.821-0.2c0.276-0.069,0.545-0.144,0.8-0.221c0.253-0.077,0.487-0.167,0.697-0.269
	c0.084-0.041,0.175-0.095,0.271-0.162c0.088-0.062,0.154-0.135,0.197-0.217c0.035-0.07,0.084-0.124,0.146-0.158
	c0.059-0.033,0.117-0.049,0.176-0.049c0.067,0,0.121,0.021,0.166,0.059c0.035,0.03,0.073,0.085,0.058,0.183
	c-0.023,0.183-0.099,0.349-0.225,0.494c-0.121,0.139-0.268,0.266-0.435,0.375c-0.166,0.109-0.344,0.204-0.527,0.281
	c-0.19,0.081-0.352,0.144-0.496,0.192c-0.204,0.07-0.43,0.138-0.688,0.207c-0.251,0.067-0.506,0.133-0.764,0.198
	c-0.258,0.065-0.511,0.131-0.76,0.197c-0.242,0.065-0.471,0.132-0.678,0.2c-0.074,0.025-0.15,0.056-0.23,0.092
	c-0.073,0.033-0.145,0.078-0.209,0.132c-0.074,0.06-0.119,0.127-0.139,0.2c-0.02,0.077,0.008,0.108,0.037,0.128
	c0.045,0.021,0.106,0.03,0.169,0.014c0.073-0.019,0.15-0.045,0.228-0.078c0.096-0.038,0.148-0.017,0.17,0.004
	c0.021,0.021,0.047,0.066,0.012,0.139c-0.018,0.039-0.047,0.077-0.092,0.12c-0.045,0.042-0.099,0.074-0.16,0.095
	c-0.092,0.031-0.184,0.055-0.275,0.072C21.378,13.151,21.329,13.156,21.284,13.156z M26.265,9.96c-0.039,0-0.078,0.012-0.117,0.033
	c-0.041,0.022-0.072,0.058-0.098,0.107c-0.053,0.101-0.133,0.189-0.236,0.262c-0.102,0.071-0.197,0.129-0.287,0.172
	c-0.215,0.105-0.456,0.198-0.716,0.276c-0.255,0.078-0.526,0.153-0.805,0.223c-0.276,0.068-0.551,0.136-0.823,0.2
	c-0.264,0.063-0.518,0.132-0.756,0.207c-0.19,0.059-0.383,0.129-0.57,0.208c-0.186,0.078-0.361,0.187-0.523,0.326
	c-0.102,0.088-0.189,0.191-0.261,0.307c-0.069,0.115-0.116,0.228-0.138,0.334c-0.02,0.102-0.012,0.188,0.026,0.265
	c0.034,0.071,0.104,0.117,0.213,0.141c0.07,0.014,0.148,0.014,0.229,0c0.085-0.016,0.173-0.039,0.259-0.067
	c0.045-0.016,0.083-0.038,0.114-0.068c0.026-0.024,0.045-0.047,0.058-0.067c-0.005,0.001-0.01,0.003-0.016,0.006
	c-0.082,0.035-0.164,0.063-0.244,0.083c-0.091,0.023-0.179,0.014-0.262-0.027c-0.066-0.045-0.129-0.123-0.094-0.264
	c0.025-0.099,0.086-0.188,0.18-0.264c0.073-0.061,0.153-0.111,0.236-0.149c0.084-0.038,0.164-0.07,0.242-0.096
	c0.21-0.069,0.44-0.137,0.686-0.202c0.249-0.067,0.503-0.132,0.762-0.197c0.258-0.065,0.511-0.131,0.762-0.198
	c0.256-0.069,0.479-0.136,0.68-0.205c0.141-0.047,0.3-0.109,0.487-0.189c0.177-0.074,0.348-0.166,0.507-0.271
	c0.158-0.104,0.297-0.222,0.41-0.354c0.109-0.125,0.176-0.271,0.197-0.43c0.008-0.052-0.01-0.067-0.018-0.073
	C26.327,9.971,26.3,9.961,26.265,9.96L26.265,9.96z"/>
<line fill="none" stroke="#A18553" stroke-linecap="round" stroke-miterlimit="10" x1="38.341" y1="2.496" x2="30.45" y2="10.388"/>
<line fill="none" stroke="#A18553" stroke-linecap="round" stroke-miterlimit="10" x1="36.005" y1="2.208" x2="38.628" y2="4.832"/>
<line fill="none" stroke="#A18553" stroke-linecap="round" stroke-miterlimit="10" x1="34.788" y1="3.426" x2="37.411" y2="6.049"/>
<line fill="none" stroke="#A18553" stroke-linecap="round" stroke-miterlimit="10" x1="7.604" y1="2.496" x2="15.495" y2="10.388"/>
<line fill="none" stroke="#A18553" stroke-linecap="round" stroke-miterlimit="10" x1="9.938" y1="2.208" x2="7.315" y2="4.832"/>
<line fill="none" stroke="#A18553" stroke-linecap="round" stroke-miterlimit="10" x1="11.157" y1="3.426" x2="8.534" y2="6.049"/>
<line fill="none" stroke="#A18553" stroke-linecap="round" stroke-miterlimit="10" x1="38.341" y1="32.756" x2="30.45" y2="24.865"/>
<line fill="none" stroke="#A18553" stroke-linecap="round" stroke-miterlimit="10" x1="36.005" y1="33.043" x2="38.628" y2="30.42"/>
<line fill="none" stroke="#A18553" stroke-linecap="round" stroke-miterlimit="10" x1="34.788" y1="31.826" x2="37.411" y2="29.204"/>
<line fill="none" stroke="#A18553" stroke-linecap="round" stroke-miterlimit="10" x1="7.604" y1="32.756" x2="15.495" y2="24.865"/>
<line fill="none" stroke="#A18553" stroke-linecap="round" stroke-miterlimit="10" x1="9.938" y1="33.043" x2="7.315" y2="30.42"/>
<line fill="none" stroke="#A18553" stroke-linecap="round" stroke-miterlimit="10" x1="11.157" y1="31.826" x2="8.534" y2="29.204"/>
</svg>
