<?xml version="1.0" encoding="utf-8"?>
<!-- Generator: Adobe Illustrator 16.0.0, SVG Export Plug-In . SVG Version: 6.00 Build 0)  -->
<!DOCTYPE svg PUBLIC "-//W3C//DTD SVG 1.1//EN" "http://www.w3.org/Graphics/SVG/1.1/DTD/svg11.dtd">
<svg version="1.1" id="Layer_1" xmlns="http://www.w3.org/2000/svg" xmlns:xlink="http://www.w3.org/1999/xlink" x="0px" y="0px"
	 width="48.695px" height="42.18px" viewBox="0 -3.791 48.695 42.18" enable-background="new 0 -3.791 48.695 42.18"
	 xml:space="preserve">
<g>
	<path fill="#FFFFFF" d="M0.648,15.009l0.152,0.597v6.431l-0.153,0.586h1.469l-0.153-0.586v-2.6l0.034-0.035h1.28l0.53-0.53V15.54
		l-0.53-0.53L0.648,15.009L0.648,15.009z M1.963,18.205v-1.988l0.034-0.034h0.604l0.035,0.034v1.988L2.601,18.24H1.997L1.963,18.205
		z"/>
	<polygon fill="#FFFFFF" points="5.634,21.46 5.599,21.426 5.599,15.604 5.737,15.009 4.274,15.009 4.427,15.605 4.427,22.037 
		4.272,22.623 7.296,22.623 7.515,21.318 6.87,21.46 	"/>
	<path fill="#FFFFFF" d="M10.228,15.551l0.126-0.542H8.788l0.125,0.542l-1.079,6.28l-0.269,0.791h1.479l-0.104-0.437l0.223-1.352
		l0.062-0.058h0.7l0.064,0.063l0.234,1.346l-0.105,0.436h1.48l-0.276-0.783L10.228,15.551z M9.569,18.387l0.206,1.218H9.367
		l-0.005-0.004L9.569,18.387z"/>
	<polygon fill="#FFFFFF" points="11.577,15.009 11.36,16.325 12.004,16.182 12.548,16.182 12.583,16.217 12.583,22.037 
		12.429,22.623 13.897,22.623 13.745,22.037 13.745,16.217 13.779,16.182 14.312,16.182 14.956,16.325 14.739,15.009 	"/>
	<polygon fill="#FFFFFF" points="16.829,16.171 18.075,16.171 18.72,16.314 18.503,15.009 15.479,15.009 15.632,15.594 
		15.632,22.027 15.479,22.623 18.503,22.623 18.72,21.307 18.075,21.451 16.829,21.451 16.794,21.416 16.794,19.426 16.829,19.392 
		17.125,19.392 17.722,19.544 17.722,18.077 17.125,18.229 16.829,18.229 16.794,18.195 16.794,16.206 	"/>
	<path fill="#FFFFFF" d="M21.823,15.009l0.152,0.597v6.431l-0.154,0.586h1.47l-0.152-0.586v-2.6l0.034-0.035h1.279l0.53-0.53V15.54
		l-0.53-0.53L21.823,15.009L21.823,15.009z M23.138,18.205v-1.988l0.034-0.034h0.603l0.035,0.034v1.988l-0.035,0.035h-0.603
		L23.138,18.205z"/>
	<path fill="#FFFFFF" d="M28.156,19.323l0.452-0.451V15.54l-0.531-0.53h-2.629l0.152,0.597v6.431l-0.152,0.586h1.468l-0.152-0.586
		v-2.6l0.034-0.035h0.183l0.399,2.658l-0.108,0.562h1.467l-0.195-0.608L28.156,19.323z M27.445,16.217v1.988l-0.034,0.035h-0.613
		l-0.034-0.035v-1.988l0.034-0.034h0.613L27.445,16.217z"/>
	<path fill="#FFFFFF" d="M29.991,15.009l-0.531,0.53v6.553l0.531,0.53h1.945l0.529-0.53V15.54l-0.529-0.53L29.991,15.009
		L29.991,15.009z M30.622,21.426v-5.209l0.035-0.034h0.603l0.034,0.034v5.209L31.26,21.46h-0.603L30.622,21.426z"/>
	<polygon fill="#FFFFFF" points="34.823,15.605 34.823,21.426 34.788,21.46 34.175,21.46 34.14,21.426 34.14,20.671 34.294,20.075 
		32.826,20.075 32.979,20.671 32.979,22.092 33.509,22.623 35.454,22.623 35.985,22.092 35.985,15.605 36.138,15.009 34.671,15.009 
			"/>
	<polygon fill="#FFFFFF" points="38.237,16.171 39.485,16.171 40.128,16.314 39.911,15.009 36.888,15.009 37.04,15.594 
		37.04,22.027 36.888,22.623 39.911,22.623 40.128,21.307 39.485,21.451 38.237,21.451 38.202,21.416 38.202,19.426 38.237,19.392 
		38.534,19.392 39.13,19.544 39.13,18.077 38.534,18.229 38.237,18.229 38.202,18.195 38.202,16.206 	"/>
	<polygon fill="#FFFFFF" points="42.399,17.088 43.868,17.088 43.716,16.502 43.716,15.54 43.185,15.009 41.239,15.009 
		40.708,15.54 40.708,22.092 41.239,22.623 43.185,22.623 43.716,22.092 43.716,21.119 43.868,20.533 42.399,20.533 42.554,21.119 
		42.554,21.416 42.519,21.451 41.905,21.451 41.87,21.416 41.87,16.206 41.905,16.171 42.519,16.171 42.554,16.206 42.554,16.502 	
		"/>
	<polygon fill="#FFFFFF" points="46.735,16.182 47.269,16.182 47.913,16.325 47.694,15.009 44.534,15.009 44.315,16.325 
		44.96,16.182 45.505,16.182 45.538,16.217 45.538,22.037 45.386,22.623 46.854,22.623 46.7,22.037 46.7,16.217 	"/>
</g>
<g>
	<path fill="#FFFFFF" d="M23.292,8.587l-0.138,0.27c0.053-0.077,0.104-0.154,0.157-0.23c0.052-0.076,0.105-0.151,0.161-0.227
		c0.065-0.09,0.143-0.192,0.231-0.309c0.089-0.115,0.188-0.219,0.289-0.311c0.104-0.091,0.212-0.16,0.326-0.207
		c0.113-0.046,0.229-0.048,0.348-0.007c0.068,0.023,0.122,0.06,0.161,0.108s0.065,0.105,0.081,0.169
		c0.014,0.064,0.018,0.133,0.01,0.204s-0.022,0.145-0.047,0.217c-0.072,0.218-0.168,0.427-0.286,0.625
		c-0.119,0.198-0.234,0.395-0.351,0.588c-0.055,0.095-0.086,0.164-0.095,0.208c-0.01,0.044-0.001,0.067,0.021,0.071
		c0.021,0.004,0.06-0.01,0.107-0.043c0.049-0.032,0.103-0.081,0.16-0.143c0.065-0.067,0.127-0.138,0.185-0.211
		s0.115-0.146,0.174-0.214c0.065-0.08,0.13-0.161,0.196-0.242c0.063-0.082,0.131-0.166,0.195-0.252
		c0.028-0.038,0.059-0.063,0.088-0.074c0.028-0.012,0.055-0.013,0.073-0.003c0.02,0.01,0.031,0.028,0.039,0.054
		c0.006,0.027,0.001,0.059-0.016,0.094c-0.025,0.054-0.062,0.117-0.107,0.194c-0.045,0.076-0.094,0.154-0.145,0.233
		s-0.103,0.156-0.151,0.229c-0.051,0.075-0.093,0.137-0.125,0.185c-0.059,0.089-0.124,0.185-0.197,0.287s-0.154,0.193-0.242,0.274
		s-0.185,0.145-0.283,0.189c-0.103,0.046-0.208,0.055-0.318,0.028c-0.096-0.021-0.168-0.062-0.219-0.12
		c-0.051-0.059-0.084-0.126-0.103-0.205c-0.02-0.078-0.021-0.164-0.008-0.255c0.014-0.093,0.033-0.183,0.062-0.269
		c0.043-0.119,0.094-0.233,0.154-0.343c0.061-0.11,0.123-0.217,0.188-0.322c0.064-0.104,0.132-0.208,0.2-0.309
		c0.068-0.103,0.132-0.207,0.189-0.315c0.037-0.064,0.05-0.104,0.037-0.117c-0.012-0.013-0.039-0.004-0.083,0.024
		s-0.102,0.076-0.171,0.141s-0.149,0.145-0.237,0.237c-0.102,0.106-0.193,0.216-0.279,0.331c-0.084,0.115-0.17,0.23-0.254,0.351
		c-0.068,0.098-0.138,0.193-0.203,0.288c-0.066,0.096-0.129,0.19-0.187,0.287c-0.058,0.096-0.107,0.196-0.151,0.298
		c-0.044,0.103-0.076,0.21-0.097,0.325c-0.01,0.061-0.031,0.112-0.067,0.154c-0.035,0.042-0.076,0.074-0.122,0.095
		c-0.046,0.021-0.093,0.032-0.14,0.032c-0.048,0-0.09-0.01-0.125-0.029c-0.056-0.029-0.094-0.079-0.112-0.146
		c-0.021-0.068-0.026-0.146-0.021-0.234c0.008-0.087,0.021-0.18,0.044-0.277c0.023-0.097,0.051-0.19,0.08-0.283
		c0.031-0.092,0.062-0.178,0.095-0.257c0.031-0.078,0.057-0.141,0.075-0.188c0.102-0.249,0.212-0.495,0.332-0.736
		c0.121-0.241,0.25-0.479,0.388-0.711c0.028-0.051,0.067-0.119,0.118-0.202c0.048-0.083,0.104-0.171,0.162-0.261
		c0.062-0.091,0.126-0.181,0.196-0.27c0.07-0.09,0.143-0.165,0.216-0.227s0.148-0.104,0.229-0.131
		c0.078-0.025,0.152-0.02,0.226,0.017c0.074,0.036,0.12,0.095,0.138,0.175c0.016,0.081,0.006,0.165-0.029,0.252
		C24.28,7.231,24.235,7.32,24.177,7.41c-0.058,0.09-0.125,0.187-0.202,0.286c-0.079,0.101-0.167,0.209-0.268,0.329
		c-0.1,0.119-0.21,0.249-0.33,0.391L23.292,8.587z"/>
	<path fill="#FFFFFF" d="M25.75,9.374c0.078,0.045,0.166,0.059,0.268,0.039c0.099-0.02,0.201-0.058,0.311-0.116
		c0.108-0.058,0.216-0.13,0.325-0.216s0.213-0.175,0.311-0.267c0.101-0.093,0.188-0.183,0.267-0.271
		c0.078-0.087,0.139-0.161,0.186-0.221c0.032-0.045,0.065-0.073,0.099-0.083c0.032-0.011,0.06-0.009,0.081,0.005
		c0.021,0.014,0.033,0.04,0.038,0.077c0.006,0.037-0.003,0.078-0.021,0.124c-0.18,0.394-0.412,0.733-0.699,1.019
		c-0.092,0.088-0.189,0.171-0.297,0.25c-0.105,0.079-0.216,0.146-0.33,0.203s-0.229,0.097-0.348,0.122
		c-0.117,0.025-0.234,0.027-0.354,0.005c-0.141-0.023-0.252-0.072-0.335-0.146c-0.084-0.073-0.143-0.162-0.18-0.266
		c-0.035-0.103-0.051-0.218-0.046-0.344s0.023-0.256,0.059-0.388c0.034-0.131,0.081-0.261,0.139-0.388
		c0.057-0.129,0.116-0.245,0.184-0.352c0.063-0.103,0.138-0.206,0.217-0.31c0.08-0.104,0.168-0.201,0.262-0.291
		c0.097-0.09,0.195-0.17,0.303-0.239c0.105-0.069,0.218-0.121,0.335-0.155c0.138-0.04,0.271-0.043,0.398-0.009
		c0.129,0.035,0.229,0.107,0.303,0.219c0.067,0.105,0.1,0.222,0.094,0.346c-0.004,0.125-0.033,0.25-0.087,0.373
		c-0.055,0.123-0.126,0.241-0.219,0.354c-0.092,0.113-0.188,0.207-0.288,0.284c-0.166,0.127-0.332,0.211-0.497,0.251
		c-0.165,0.041-0.33,0.051-0.497,0.031c-0.025,0.08-0.039,0.151-0.041,0.218C25.682,9.3,25.703,9.346,25.75,9.374z M26.205,8.501
		c0.127-0.07,0.236-0.17,0.328-0.298c0.022-0.03,0.051-0.074,0.083-0.132s0.054-0.112,0.063-0.163
		c0.017-0.058,0.01-0.09-0.021-0.097s-0.063,0.001-0.103,0.021c-0.057,0.026-0.108,0.064-0.159,0.113
		c-0.051,0.05-0.097,0.097-0.135,0.139c-0.068,0.077-0.134,0.159-0.191,0.244c-0.057,0.086-0.111,0.172-0.16,0.259
		C26.016,8.579,26.113,8.55,26.205,8.501z"/>
	<path fill="#FFFFFF" d="M23.314,6.262l0.026,0.175c0.066-0.021,0.136-0.042,0.197-0.063c0.128-0.044,0.271-0.103,0.43-0.175
		s0.308-0.16,0.443-0.264c0.137-0.104,0.252-0.225,0.344-0.361c0.093-0.137,0.138-0.295,0.135-0.476
		c0.001-0.059-0.018-0.104-0.053-0.136c-0.035-0.031-0.073-0.049-0.12-0.052c-0.044-0.003-0.089,0.009-0.134,0.035
		c-0.043,0.027-0.074,0.072-0.094,0.133c-0.031,0.093-0.088,0.173-0.17,0.24c-0.082,0.066-0.16,0.121-0.236,0.161
		c-0.184,0.098-0.39,0.181-0.619,0.25s-0.469,0.134-0.716,0.192s-0.492,0.115-0.735,0.169c-0.244,0.055-0.471,0.113-0.679,0.18
		c-0.17,0.052-0.339,0.114-0.507,0.189c-0.168,0.076-0.32,0.186-0.456,0.328c-0.088,0.091-0.157,0.199-0.21,0.323
		c-0.054,0.124-0.082,0.245-0.088,0.364c-0.006,0.12,0.018,0.227,0.068,0.32c0.053,0.095,0.139,0.16,0.26,0.195
		c0.076,0.021,0.154,0.026,0.236,0.014c0.079-0.014,0.159-0.032,0.237-0.061c0.047-0.016,0.085-0.042,0.115-0.079
		c0.031-0.036,0.051-0.07,0.061-0.103c0.011-0.032,0.007-0.058-0.01-0.073c-0.016-0.018-0.047-0.017-0.093,0.004
		c-0.071,0.031-0.142,0.055-0.21,0.072c-0.068,0.017-0.137,0.006-0.205-0.035c-0.064-0.049-0.092-0.118-0.084-0.207
		c0.01-0.089,0.048-0.167,0.117-0.235c0.057-0.058,0.119-0.103,0.188-0.137c0.069-0.034,0.14-0.063,0.207-0.087
		c0.183-0.061,0.386-0.118,0.606-0.175c0.221-0.058,0.448-0.114,0.68-0.169c0.077-0.019,0.151-0.038,0.229-0.058l0.226-0.132
		L23.314,6.262z"/>
	<path fill="#FFFFFF" d="M22.336,6.841c-0.047,0.052-0.09,0.104-0.131,0.156c-0.161,0.193-0.312,0.389-0.455,0.586
		c-0.143,0.197-0.279,0.401-0.413,0.613c-0.097,0.159-0.195,0.332-0.3,0.518c-0.104,0.186-0.188,0.374-0.262,0.565
		c-0.07,0.192-0.119,0.383-0.146,0.574c-0.027,0.19-0.018,0.372,0.033,0.541c0.014,0.053,0.037,0.109,0.069,0.171
		c0.032,0.061,0.071,0.112,0.12,0.157c0.049,0.044,0.103,0.076,0.162,0.096c0.059,0.019,0.122,0.012,0.191-0.023
		c0.061-0.023,0.104-0.056,0.131-0.095c0.027-0.039,0.049-0.083,0.062-0.131c0.015-0.048,0.021-0.098,0.023-0.149
		c0.003-0.051,0.01-0.101,0.019-0.147c0.042-0.25,0.109-0.506,0.206-0.767c0.097-0.26,0.209-0.519,0.334-0.774
		c0.127-0.257,0.264-0.51,0.414-0.762c0.147-0.251,0.297-0.494,0.442-0.731c0.078-0.128,0.161-0.263,0.248-0.405
		c0.08-0.129,0.168-0.244,0.264-0.347l-0.008-0.048c-0.129,0.04-0.264,0.079-0.41,0.117c-0.149,0.038-0.303,0.075-0.454,0.112
		l-0.052,0.031c0.017-0.005,0.031-0.011,0.048-0.017C22.427,6.735,22.381,6.789,22.336,6.841z"/>
	<path fill="#FFFFFF" d="M23.342,6.437l-0.026-0.175l-0.614,0.27l-0.225,0.136c0.151-0.037,0.305-0.074,0.454-0.112
		C23.078,6.516,23.213,6.477,23.342,6.437z"/>
	<path fill="#FFFFFF" d="M27.427,10.071c-0.022,0.172-0.092,0.327-0.211,0.462c-0.118,0.137-0.26,0.258-0.422,0.365
		c-0.164,0.106-0.336,0.199-0.518,0.275c-0.184,0.077-0.346,0.143-0.491,0.19c-0.206,0.07-0.435,0.139-0.685,0.206
		c-0.251,0.067-0.506,0.133-0.765,0.198c-0.258,0.064-0.511,0.131-0.76,0.196c-0.248,0.066-0.477,0.135-0.682,0.201
		c-0.078,0.027-0.157,0.059-0.236,0.094c-0.08,0.036-0.154,0.084-0.223,0.142c-0.084,0.067-0.138,0.146-0.158,0.23
		c-0.022,0.086-0.002,0.151,0.061,0.194c0.07,0.035,0.144,0.042,0.22,0.023c0.076-0.021,0.155-0.048,0.236-0.081
		c0.055-0.021,0.087-0.024,0.104-0.01c0.014,0.017,0.015,0.039,0,0.07c-0.017,0.032-0.042,0.065-0.08,0.103
		c-0.037,0.035-0.084,0.062-0.137,0.082c-0.09,0.029-0.179,0.053-0.268,0.068c-0.089,0.017-0.174,0.018-0.253,0
		c-0.127-0.027-0.213-0.087-0.256-0.174c-0.043-0.088-0.053-0.189-0.029-0.304c0.021-0.115,0.07-0.233,0.146-0.355
		c0.074-0.121,0.164-0.229,0.272-0.321c0.166-0.143,0.347-0.255,0.538-0.336c0.192-0.081,0.386-0.15,0.577-0.21
		c0.234-0.072,0.487-0.143,0.76-0.208c0.271-0.064,0.546-0.132,0.822-0.2c0.275-0.069,0.543-0.144,0.802-0.223
		s0.495-0.169,0.706-0.272c0.088-0.042,0.183-0.099,0.279-0.167c0.098-0.068,0.17-0.149,0.217-0.239
		c0.029-0.06,0.07-0.104,0.121-0.133c0.052-0.028,0.102-0.042,0.15-0.041c0.047,0.001,0.089,0.015,0.123,0.044
		C27.424,9.973,27.436,10.015,27.427,10.071z"/>
	<path fill="#FFFFFF" d="M22.285,13.156c-0.047,0-0.092-0.004-0.137-0.013c-0.146-0.033-0.246-0.104-0.297-0.208
		c-0.05-0.101-0.062-0.216-0.035-0.344c0.022-0.12,0.074-0.247,0.151-0.375c0.078-0.126,0.175-0.238,0.285-0.335
		c0.172-0.146,0.359-0.264,0.557-0.346c0.191-0.081,0.388-0.152,0.583-0.212c0.238-0.075,0.496-0.145,0.763-0.209
		c0.271-0.064,0.546-0.131,0.821-0.2c0.275-0.068,0.545-0.144,0.8-0.221c0.253-0.077,0.487-0.167,0.697-0.27
		c0.084-0.041,0.175-0.095,0.271-0.161c0.088-0.062,0.154-0.136,0.197-0.218c0.035-0.069,0.084-0.124,0.146-0.157
		c0.06-0.033,0.117-0.05,0.177-0.05c0.066,0,0.12,0.021,0.166,0.06c0.034,0.029,0.072,0.085,0.058,0.183
		c-0.023,0.184-0.099,0.35-0.225,0.494c-0.121,0.139-0.269,0.266-0.436,0.375c-0.166,0.109-0.344,0.204-0.527,0.281
		c-0.189,0.081-0.352,0.144-0.495,0.191c-0.204,0.07-0.431,0.139-0.688,0.207c-0.251,0.067-0.506,0.134-0.764,0.198
		c-0.259,0.065-0.512,0.131-0.761,0.197c-0.241,0.064-0.471,0.132-0.678,0.2c-0.074,0.024-0.149,0.056-0.229,0.092
		c-0.073,0.033-0.146,0.078-0.209,0.132c-0.074,0.06-0.119,0.127-0.14,0.2c-0.02,0.077,0.008,0.107,0.037,0.128
		c0.045,0.021,0.106,0.03,0.169,0.014c0.073-0.019,0.15-0.045,0.229-0.078c0.096-0.038,0.147-0.017,0.17,0.004
		c0.021,0.021,0.047,0.066,0.012,0.14c-0.018,0.039-0.047,0.077-0.092,0.12c-0.045,0.042-0.1,0.073-0.16,0.095
		c-0.092,0.031-0.184,0.055-0.275,0.072C22.379,13.151,22.33,13.156,22.285,13.156z M27.266,9.96c-0.039,0-0.078,0.013-0.117,0.033
		c-0.041,0.022-0.072,0.058-0.099,0.107c-0.053,0.101-0.133,0.188-0.235,0.262c-0.103,0.071-0.197,0.129-0.287,0.172
		c-0.215,0.105-0.456,0.198-0.716,0.276c-0.255,0.078-0.526,0.152-0.806,0.223c-0.275,0.068-0.551,0.136-0.822,0.2
		c-0.265,0.062-0.519,0.132-0.757,0.207c-0.189,0.059-0.383,0.129-0.569,0.208c-0.187,0.078-0.361,0.187-0.523,0.326
		c-0.102,0.088-0.188,0.19-0.261,0.307c-0.069,0.115-0.116,0.228-0.138,0.334c-0.021,0.102-0.013,0.188,0.025,0.265
		c0.034,0.071,0.104,0.117,0.213,0.142c0.07,0.014,0.148,0.014,0.229,0c0.085-0.017,0.173-0.039,0.259-0.067
		c0.045-0.016,0.083-0.038,0.114-0.068c0.025-0.023,0.045-0.047,0.058-0.066c-0.005,0.001-0.01,0.003-0.016,0.006
		c-0.082,0.035-0.164,0.063-0.244,0.083c-0.091,0.023-0.179,0.014-0.262-0.027c-0.066-0.045-0.129-0.123-0.095-0.264
		c0.025-0.099,0.087-0.188,0.181-0.264c0.073-0.062,0.152-0.111,0.235-0.149c0.084-0.038,0.164-0.07,0.242-0.096
		c0.21-0.069,0.44-0.137,0.687-0.202c0.249-0.067,0.503-0.132,0.762-0.197c0.258-0.064,0.511-0.131,0.762-0.198
		c0.256-0.068,0.479-0.136,0.681-0.204c0.141-0.048,0.3-0.109,0.486-0.189c0.178-0.074,0.349-0.166,0.507-0.271
		s0.298-0.223,0.41-0.354c0.109-0.125,0.177-0.271,0.197-0.43c0.008-0.053-0.01-0.067-0.018-0.073
		C27.328,9.971,27.301,9.961,27.266,9.96L27.266,9.96z"/>
</g>
<g>
	<g>
		
			<line fill="none" stroke="#A18553" stroke-linecap="round" stroke-miterlimit="10" x1="39.342" y1="2.496" x2="31.451" y2="10.388"/>
		
			<line fill="none" stroke="#A18553" stroke-linecap="round" stroke-miterlimit="10" x1="37.006" y1="2.208" x2="39.629" y2="4.832"/>
		
			<line fill="none" stroke="#A18553" stroke-linecap="round" stroke-miterlimit="10" x1="35.789" y1="3.426" x2="38.412" y2="6.049"/>
	</g>
	<g>
		
			<line fill="none" stroke="#A18553" stroke-linecap="round" stroke-miterlimit="10" x1="8.605" y1="2.496" x2="16.496" y2="10.388"/>
		
			<line fill="none" stroke="#A18553" stroke-linecap="round" stroke-miterlimit="10" x1="10.939" y1="2.208" x2="8.316" y2="4.832"/>
		
			<line fill="none" stroke="#A18553" stroke-linecap="round" stroke-miterlimit="10" x1="12.158" y1="3.426" x2="9.535" y2="6.049"/>
	</g>
	<g>
		
			<line fill="none" stroke="#A18553" stroke-linecap="round" stroke-miterlimit="10" x1="39.342" y1="32.756" x2="31.451" y2="24.865"/>
		
			<line fill="none" stroke="#A18553" stroke-linecap="round" stroke-miterlimit="10" x1="37.006" y1="33.043" x2="39.629" y2="30.42"/>
		
			<line fill="none" stroke="#A18553" stroke-linecap="round" stroke-miterlimit="10" x1="35.789" y1="31.826" x2="38.412" y2="29.204"/>
	</g>
	<g>
		
			<line fill="none" stroke="#A18553" stroke-linecap="round" stroke-miterlimit="10" x1="8.605" y1="32.756" x2="16.496" y2="24.865"/>
		
			<line fill="none" stroke="#A18553" stroke-linecap="round" stroke-miterlimit="10" x1="10.939" y1="33.043" x2="8.316" y2="30.42"/>
		
			<line fill="none" stroke="#A18553" stroke-linecap="round" stroke-miterlimit="10" x1="12.158" y1="31.826" x2="9.535" y2="29.204"/>
	</g>
</g>
</svg>
