<?xml version="1.0" encoding="utf-8"?>
<!-- Generator: Adobe Illustrator 16.0.0, SVG Export Plug-In . SVG Version: 6.00 Build 0)  -->
<!DOCTYPE svg PUBLIC "-//W3C//DTD SVG 1.1//EN" "http://www.w3.org/Graphics/SVG/1.1/DTD/svg11.dtd">
<svg version="1.1" id="Layer_1" xmlns="http://www.w3.org/2000/svg" xmlns:xlink="http://www.w3.org/1999/xlink" x="0px" y="0px"
	 width="18.98px" height="18.704px" viewBox="0 0 18.98 18.704" enable-background="new 0 0 18.98 18.704" xml:space="preserve">
<path fill-rule="evenodd" clip-rule="evenodd" fill="#FFFFFF" d="M9.715,17.66c-4.487,0-8.125-3.637-8.125-8.125
	c0-4.487,3.638-8.125,8.125-8.125s8.125,3.638,8.125,8.125C17.84,14.023,14.202,17.66,9.715,17.66 M9.715,2.934
	c-3.645,0-6.602,2.955-6.602,6.602s2.957,6.602,6.602,6.602s6.602-2.955,6.602-6.602S13.36,2.934,9.715,2.934 M13.016,10.297h-2.539
	v2.539c0,0.421-0.341,0.762-0.762,0.762s-0.762-0.341-0.762-0.762v-2.539H6.414c-0.421,0-0.762-0.341-0.762-0.762
	s0.341-0.762,0.762-0.762h2.539V6.234c0-0.421,0.341-0.762,0.762-0.762s0.762,0.341,0.762,0.762v2.539h2.539
	c0.421,0,0.762,0.341,0.762,0.762S13.437,10.297,13.016,10.297"/>
</svg>
